<svg width="16" height="16" viewBox="0 0 16 16" xmlns="http://www.w3.org/2000/svg">
<path fill-rule="evenodd" clip-rule="evenodd" d="M3.05027 3.05025C3.4408 2.65973 4.07396 2.65973 4.46449 3.05025L8.00002 6.58579L11.5356 3.05025C11.9261 2.65973 12.5592 2.65973 12.9498 3.05025C13.3403 3.44078 13.3403 4.07394 12.9498 4.46447L9.41423 8L12.9498 11.5355C13.3403 11.9261 13.3403 12.5592 12.9498 12.9497C12.5592 13.3403 11.9261 13.3403 11.5356 12.9497L8.00002 9.41421L4.46449 12.9497C4.07396 13.3403 3.4408 13.3403 3.05027 12.9497C2.65975 12.5592 2.65975 11.9261 3.05027 11.5355L6.58581 8L3.05027 4.46447C2.65975 4.07394 2.65975 3.44078 3.05027 3.05025Z"/>
</svg>
